<svg width="475" height="414" viewBox="0 0 475 414" fill="none" xmlns="http://www.w3.org/2000/svg">
<rect width="475" height="414" fill="#F5F5F5"/>
<rect x="140" y="90" width="195" height="217" rx="25" fill="#638B98"/>
<circle cx="163.5" cy="146.5" r="7.5" fill="#F5F5F5"/>
<circle cx="163.5" cy="189.5" r="7.5" fill="#F5F5F5"/>
<circle cx="163.5" cy="232.5" r="7.5" fill="#F5F5F5"/>
<rect x="185" y="159" width="55" height="10" rx="5" fill="#F5F5F5"/>
<rect x="184" y="183" width="126" height="10" rx="5" fill="#F5F5F5"/>
<rect x="184" y="140" width="126" height="10" rx="5" fill="#F5F5F5"/>
<rect x="184" y="227" width="126" height="10" rx="5" fill="#F5F5F5"/>
<rect x="184" y="202" width="56" height="10" rx="5" fill="#F5F5F5"/>
<rect x="184" y="246" width="56" height="10" rx="5" fill="#F5F5F5"/>
<path d="M236.061 57.9169C238.548 56.7068 241.452 56.7068 243.939 57.9169L309.669 89.9075C318.256 94.0865 315.28 107 305.731 107H174.269C164.72 107 161.744 94.0865 170.331 89.9075L236.061 57.9169Z" fill="#F5F5F5"/>
<path d="M294.943 206.498C297.489 203.659 300.94 202.067 304.537 202.071C308.133 202.075 311.58 203.676 314.12 206.521C316.66 209.366 318.084 213.223 318.079 217.242C318.075 221.262 316.641 225.115 314.095 227.954L308.898 233.743L310.758 235.819C311.908 237.106 312.82 238.634 313.441 240.316C314.062 241.997 314.381 243.799 314.379 245.618C314.378 247.438 314.055 249.239 313.431 250.919C312.806 252.599 311.891 254.126 310.739 255.411L302.826 264.237C302.161 264.98 301.259 265.397 300.32 265.397C299.38 265.396 298.479 264.979 297.815 264.236C297.15 263.493 296.777 262.486 296.778 261.436C296.778 260.385 297.152 259.378 297.817 258.636L305.737 249.809C306.231 249.258 306.623 248.604 306.891 247.884C307.159 247.164 307.297 246.391 307.298 245.611C307.299 244.831 307.162 244.059 306.896 243.338C306.629 242.617 306.238 241.962 305.745 241.41L303.884 239.343L261.659 286.432C260.376 287.862 258.814 288.939 257.095 289.578L237.659 296.802C237.035 297.034 236.365 297.066 235.725 296.896C235.086 296.726 234.501 296.36 234.036 295.839C233.572 295.319 233.247 294.664 233.097 293.948C232.947 293.232 232.979 292.484 233.188 291.787L239.683 270.088C240.259 268.168 241.225 266.424 242.507 264.993L294.943 206.498Z" fill="#F5F5F5"/>
</svg>
