<svg width="475" height="414" viewBox="0 0 475 414" fill="none" xmlns="http://www.w3.org/2000/svg">
<rect width="475" height="414" fill="#F5F5F5"/>
<rect x="116.642" y="106" width="153.358" height="100" rx="20" fill="#638B98"/>
<path d="M134.467 237.732C128.498 244.895 116.84 240.607 116.823 231.242L116.72 173.222C116.708 166.27 123.575 161.453 130.086 163.849L167.168 177.49C173.678 179.885 175.876 188.036 171.445 193.354L134.467 237.732Z" fill="#638B98"/>
<rect x="143" y="173" width="30" height="9" rx="4.5" fill="#F5F5F5"/>
<rect x="143" y="191" width="85" height="9" rx="4.5" fill="#F5F5F5"/>
<rect x="184" y="173" width="58" height="9" rx="4.5" fill="#F5F5F5"/>
<path d="M239.534 160H352.892C366.147 160 376.892 170.745 376.892 184V244C376.892 257.255 366.147 268 352.892 268H239.534C226.279 268 215.534 257.255 215.534 244V184C215.534 170.745 226.279 160 239.534 160Z" fill="#638B98" stroke="#F5F5F5" stroke-width="8"/>
<path d="M355.067 295.732C361.036 302.895 372.694 298.607 372.711 289.242L372.814 231.222C372.826 224.27 365.959 219.453 359.448 221.849L322.366 235.49C315.856 237.885 313.658 246.036 318.089 251.354L355.067 295.732Z" fill="#638B98"/>
<rect x="247" y="220" width="30" height="9" rx="4.5" fill="#F5F5F5"/>
<rect x="247" y="235" width="97" height="9" rx="4.5" fill="#F5F5F5"/>
<rect x="286" y="220" width="58" height="9" rx="4.5" fill="#F5F5F5"/>
<path d="M175.56 118.08L191 133.519L206.36 118.16C206.699 117.799 207.108 117.51 207.561 117.311C208.015 117.111 208.504 117.006 208.999 117C210.06 117 211.078 117.421 211.828 118.171C212.578 118.922 212.999 119.939 212.999 121C213.009 121.49 212.918 121.977 212.732 122.431C212.546 122.885 212.27 123.296 211.919 123.64L196.36 138.998L211.919 154.557C212.579 155.202 212.965 156.076 212.999 156.997C212.999 158.058 212.578 159.075 211.828 159.825C211.078 160.575 210.06 160.997 208.999 160.997C208.49 161.018 207.981 160.933 207.506 160.747C207.031 160.561 206.6 160.278 206.24 159.917L191 144.478L175.6 159.877C175.262 160.226 174.859 160.505 174.412 160.697C173.966 160.889 173.486 160.991 173.001 160.997C171.94 160.997 170.922 160.575 170.172 159.825C169.422 159.075 169.001 158.058 169.001 156.997C168.991 156.507 169.082 156.02 169.268 155.566C169.454 155.112 169.73 154.701 170.081 154.357L185.64 138.998L170.081 123.44C169.421 122.795 169.035 121.921 169.001 121C169.001 119.939 169.422 118.922 170.172 118.171C170.922 117.421 171.94 117 173.001 117C173.961 117.012 174.88 117.4 175.56 118.08Z" fill="#F5F5F5"/>
<path d="M274 192.533L288.667 207L318 176" stroke="#F5F5F5" stroke-width="8" stroke-linecap="round" stroke-linejoin="round"/>
<ellipse cx="229.5" cy="317" rx="143.5" ry="17" fill="#638B98" fill-opacity="0.31"/>
</svg>
