<svg width="475" height="397" viewBox="0 0 475 397" fill="none" xmlns="http://www.w3.org/2000/svg">
<rect width="475" height="397" fill="#F5F5F5"/>
<circle cx="120.5" cy="100.5" r="36.5" fill="#F5F5F5" stroke="#638B98" stroke-width="8"/>
<circle cx="124.5" cy="190.5" r="36.5" fill="#F5F5F5" stroke="#638B98" stroke-width="8"/>
<circle cx="124.5" cy="289.5" r="36.5" fill="#F5F5F5" stroke="#638B98" stroke-width="8"/>
<path d="M153 79H267C272.523 79 277 83.4772 277 89V111C277 116.523 272.523 121 267 121H153V79Z" fill="#638B98"/>
<path d="M157 169H316C321.523 169 326 173.477 326 179V201C326 206.523 321.523 211 316 211H157V169Z" fill="#638B98"/>
<path d="M158 268H377C382.523 268 387 272.477 387 278V300C387 305.523 382.523 310 377 310H158V268Z" fill="#638B98"/>
<path d="M299.3 98.3311C300.506 99.1189 300.509 100.885 299.305 101.677L272.87 119.062C271.542 119.936 269.774 118.984 269.771 117.394L269.717 82.7067C269.715 81.1164 271.479 80.1594 272.811 81.0291L299.3 98.3311Z" fill="#638B98"/>
<path d="M409.553 287.338C410.759 288.128 410.759 289.896 409.553 290.685L383.095 307.998C381.765 308.869 380 307.914 380 306.325V271.699C380 270.109 381.765 269.155 383.095 270.025L409.553 287.338Z" fill="#638B98"/>
<path d="M348.553 188.338C349.759 189.128 349.759 190.896 348.553 191.685L322.095 208.998C320.765 209.869 319 208.914 319 207.325V172.699C319 171.109 320.765 170.155 322.095 171.025L348.553 188.338Z" fill="#638B98"/>
<path d="M124.067 91.856C123.774 97.6053 123.627 102.181 123.627 105.584C123.627 107.344 123.671 109.016 123.759 110.6C123.994 110.776 124.448 110.864 125.123 110.864L126.135 110.82C126.546 110.761 126.927 110.732 127.279 110.732C128.042 110.732 128.628 110.864 129.039 111.128C129.479 111.392 129.699 111.905 129.699 112.668C129.699 113.401 129.479 113.973 129.039 114.384C128.628 114.795 127.763 115 126.443 115C125.328 115 123.979 114.912 122.395 114.736C122.014 114.707 121.647 114.677 121.295 114.648C120.943 114.619 120.62 114.604 120.327 114.604C118.714 114.633 117.511 114.692 116.719 114.78C115.927 114.868 115.032 114.912 114.035 114.912C113.126 114.912 112.671 114.223 112.671 112.844C112.671 111.524 113.522 110.864 115.223 110.864C115.487 110.864 115.912 110.893 116.499 110.952C116.998 111.04 117.526 111.084 118.083 111.084C118.406 111.084 118.67 111.069 118.875 111.04C118.904 109.075 119.007 106.215 119.183 102.46C119.359 98.06 119.447 94.804 119.447 92.692C119.3 92.7213 118.787 92.9267 117.907 93.308C116.558 93.9827 115.56 94.32 114.915 94.32C114.563 94.32 114.24 94.144 113.947 93.792C113.654 93.4107 113.507 92.9707 113.507 92.472C113.507 91.9733 113.815 91.4893 114.431 91.02C115.047 90.5507 116.044 89.9347 117.423 89.172C118.186 88.7907 118.919 88.3653 119.623 87.896C119.799 87.7787 120.048 87.6613 120.371 87.544C120.723 87.4267 120.987 87.368 121.163 87.368C121.926 87.368 122.615 87.5293 123.231 87.852C123.876 88.1453 124.199 88.5413 124.199 89.04L124.067 91.856Z" fill="#638B98"/>
<path d="M121.324 200.424C122.321 200.483 122.981 200.512 123.304 200.512C124.301 200.512 125.181 200.497 125.944 200.468C126.736 200.439 127.411 200.409 127.968 200.38C129.405 200.292 130.696 200.248 131.84 200.248C132.955 200.248 133.776 200.541 134.304 201.128C134.832 201.715 135.096 202.492 135.096 203.46C135.096 203.929 134.788 204.311 134.172 204.604C133.556 204.868 132.925 205 132.28 205C131.723 205 130.564 204.941 128.804 204.824C126.692 204.648 125.035 204.56 123.832 204.56C123.187 204.56 122.424 204.604 121.544 204.692C121.192 204.721 120.767 204.751 120.268 204.78C119.769 204.809 119.212 204.824 118.596 204.824C117.423 204.824 116.528 204.663 115.912 204.34C115.296 204.017 114.988 203.431 114.988 202.58C114.988 201.847 115.281 201.099 115.868 200.336C116.455 199.573 117.276 198.664 118.332 197.608L119.388 196.552C119.857 196.053 120.723 195.203 121.984 194C124.067 192.123 125.68 190.465 126.824 189.028C127.997 187.591 128.584 186.168 128.584 184.76C128.584 183.851 128.144 183.117 127.264 182.56C126.413 181.973 125.431 181.68 124.316 181.68C122.615 181.68 121.383 182.061 120.62 182.824C119.887 183.557 119.52 184.628 119.52 186.036C119.52 186.388 119.315 186.711 118.904 187.004C118.523 187.268 118.039 187.4 117.452 187.4C116.631 187.4 116.059 187.107 115.736 186.52C115.413 185.933 115.252 185.215 115.252 184.364C115.252 183.015 115.663 181.827 116.484 180.8C117.305 179.744 118.42 178.923 119.828 178.336C121.265 177.749 122.849 177.456 124.58 177.456C125.812 177.456 127.088 177.764 128.408 178.38C129.757 178.967 130.872 179.773 131.752 180.8C132.661 181.797 133.116 182.897 133.116 184.1C133.116 185.919 132.661 187.649 131.752 189.292C130.843 190.935 129.772 192.401 128.54 193.692C127.337 194.953 125.768 196.449 123.832 198.18C122.893 198.972 122.057 199.72 121.324 200.424Z" fill="#638B98"/>
<path d="M126.372 286.4C128.777 286.928 130.772 287.969 132.356 289.524C133.94 291.079 134.732 292.883 134.732 294.936C134.732 296.168 134.438 297.371 133.852 298.544C132.913 300.421 131.505 301.829 129.628 302.768C127.78 303.707 125.638 304.176 123.204 304.176C121.678 304.176 120.314 303.897 119.112 303.34C117.909 302.753 116.721 301.976 115.548 301.008C115.108 300.597 114.712 300.011 114.36 299.248C114.037 298.485 113.876 297.855 113.876 297.356C113.876 296.711 114.052 296.197 114.404 295.816C114.785 295.405 115.284 295.2 115.9 295.2C116.516 295.2 117 295.347 117.352 295.64C117.704 295.933 118.129 296.403 118.628 297.048C119.097 297.664 119.522 298.163 119.904 298.544C120.285 298.896 120.798 299.204 121.444 299.468C122.089 299.732 122.896 299.864 123.864 299.864C125.829 299.864 127.369 299.38 128.484 298.412C129.598 297.444 130.156 296.08 130.156 294.32C130.156 293.645 129.789 292.971 129.056 292.296C128.322 291.592 127.633 291.093 126.988 290.8C126.606 290.595 125.902 290.389 124.876 290.184C123.497 289.832 122.456 289.495 121.752 289.172C121.077 288.82 120.74 288.277 120.74 287.544C120.74 287.045 120.96 286.561 121.4 286.092C121.84 285.593 122.5 284.977 123.38 284.244C124.26 283.511 124.92 282.909 125.36 282.44C125.8 281.941 126.02 281.443 126.02 280.944C125.462 280.797 124.626 280.724 123.512 280.724C123.013 280.724 122.265 280.753 121.268 280.812C120.388 280.871 119.713 280.9 119.244 280.9C118.188 280.9 117.278 280.724 116.516 280.372C115.782 280.02 115.416 279.565 115.416 279.008C115.416 278.392 115.474 277.908 115.592 277.556C115.709 277.175 115.929 276.94 116.252 276.852C116.457 276.764 116.824 276.72 117.352 276.72C118.789 276.72 120.036 276.764 121.092 276.852C122.265 276.911 123.16 276.94 123.776 276.94L127.428 276.896C130.42 276.896 131.916 277.615 131.916 279.052C131.916 280.137 131.358 281.369 130.244 282.748C129.158 284.097 127.868 285.315 126.372 286.4Z" fill="#638B98"/>
<rect x="166" y="91" width="33" height="6" rx="3" fill="#F5F5F5"/>
<rect x="169" y="182" width="48" height="6" rx="3" fill="#F5F5F5"/>
<rect x="166" y="280" width="68" height="6" rx="3" fill="#F5F5F5"/>
<rect x="204" y="91" width="48" height="6" rx="3" fill="#F5F5F5"/>
<rect x="222" y="182" width="61" height="6" rx="3" fill="#F5F5F5"/>
<rect x="238" y="280" width="84" height="6" rx="3" fill="#F5F5F5"/>
<rect x="166" y="102" width="103" height="6" rx="3" fill="#F5F5F5"/>
<rect x="169" y="193" width="137" height="6" rx="3" fill="#F5F5F5"/>
<rect x="166" y="291" width="190" height="6" rx="3" fill="#F5F5F5"/>
</svg>
